<?xml version="1.0" encoding="UTF-8"?>
<svg xmlns="http://www.w3.org/2000/svg" xmlns:xlink="http://www.w3.org/1999/xlink" width="375pt" height="374.999991pt" viewBox="0 0 375 374.999991" version="1.2">
<defs>
<clipPath id="clip1">
  <path d="M 6.328125 0 L 368.578125 0 L 368.578125 375 L 6.328125 375 Z M 6.328125 0 "/>
</clipPath>
</defs>
<g id="surface1">
<g clip-path="url(#clip1)" clip-rule="nonzero">
<path style=" stroke:none;fill-rule:nonzero;fill:rgb(100%,100%,100%);fill-opacity:1;" d="M 168.382812 0 L 207.167969 0 L 207.167969 12.929688 L 194.238281 12.929688 L 194.238281 32.328125 L 181.3125 32.328125 L 181.3125 12.929688 L 168.382812 12.929688 Z M 328.214844 259.984375 C 331.496094 265.441406 330.007812 272.636719 324.425781 276.628906 L 245.925781 341.710938 C 240.144531 346.511719 232.820312 349.136719 225.296875 349.136719 L 71.226562 349.136719 L 71.226562 281.046875 L 100.488281 256.652344 C 103.972656 253.746094 108.390625 252.15625 112.910156 252.15625 L 197.269531 252.15625 C 202.621094 252.15625 206.964844 256.5 206.964844 261.851562 C 206.964844 267.207031 202.621094 271.550781 197.269531 271.550781 L 155.253906 271.550781 C 144.574219 271.550781 135.863281 280.238281 135.863281 290.949219 C 135.863281 301.65625 144.574219 310.34375 155.253906 310.34375 L 232.820312 310.34375 C 234.160156 310.34375 235.472656 309.914062 236.582031 309.132812 L 310.539062 256.296875 C 313.367188 254.277344 316.777344 253.542969 320.183594 254.277344 C 323.59375 254.957031 326.445312 257.003906 328.214844 259.984375 Z M 32.644531 362.070312 C 25.523438 362.070312 19.714844 356.261719 19.714844 349.136719 C 19.714844 342.015625 25.523438 336.207031 32.644531 336.207031 C 39.765625 336.207031 45.570312 342.015625 45.570312 349.136719 C 45.570312 356.261719 39.765625 362.070312 32.644531 362.070312 Z M 58.296875 355.601562 L 58.296875 278.015625 L 6.789062 278.015625 L 6.789062 375 L 58.296875 375 Z M 349.371094 213.363281 L 368.109375 213.363281 C 365.101562 228.113281 352.046875 239.222656 336.445312 239.222656 L 39.109375 239.222656 C 23.503906 239.222656 10.449219 228.113281 7.445312 213.363281 Z M 91.121094 114.636719 C 87.03125 119.257812 83.21875 124.207031 79.835938 129.359375 L 69.027344 122.238281 C 72.765625 116.582031 76.957031 111.125 81.476562 106.050781 Z M 187.777344 58.191406 L 187.777344 71.121094 C 154.824219 71.121094 123.414062 83.570312 99.351562 106.199219 L 90.492188 96.78125 C 116.976562 71.878906 151.519531 58.191406 187.777344 58.191406 Z M 32.644531 200.429688 L 342.910156 200.429688 C 342.910156 114.863281 273.320312 45.257812 187.777344 45.257812 C 102.230469 45.257812 32.644531 114.863281 32.644531 200.429688 "/>
</g>
</g>
</svg>
