<?xml version="1.0" encoding="UTF-8"?>
<svg xmlns="http://www.w3.org/2000/svg" xmlns:xlink="http://www.w3.org/1999/xlink" width="375pt" height="374.999991pt" viewBox="0 0 375 374.999991" version="1.2">
<g id="surface1">
<path style=" stroke:none;fill-rule:nonzero;fill:rgb(100%,100%,100%);fill-opacity:1;" d="M 279.890625 18.976562 C 280.914062 17.261719 281.925781 15.558594 283.085938 13.925781 C 291.253906 2.285156 311.84375 19.964844 317.183594 25.117188 C 320.328125 28.160156 323.839844 30.765625 327.082031 33.675781 C 333.667969 39.605469 329.425781 45.914062 325.792969 51.597656 C 325.609375 51.917969 325.351562 52.234375 325.121094 52.550781 C 317.246094 49.03125 310.6875 42.34375 303.566406 37.476562 C 295.238281 31.765625 287.328125 25.832031 279.890625 18.976562 Z M 272.222656 31.167969 C 273.832031 29.121094 275.257812 26.917969 276.585938 24.664062 C 283.207031 30.632812 290.070312 35.988281 297.445312 41.042969 C 305.308594 46.414062 312.464844 53.644531 321.132812 57.738281 C 319.539062 59.722656 318.074219 61.71875 317.015625 63.933594 C 301.664062 52.757812 285.988281 44.425781 272.222656 31.167969 Z M 272.515625 48.054688 C 268.539062 45.085938 270.003906 43.40625 272.089844 40.082031 C 278.304688 45.546875 284.839844 50.320312 291.484375 55.53125 C 293.472656 57.089844 302.980469 62.414062 309.089844 65.796875 C 308.664062 66.882812 307.734375 67.683594 307.113281 68.828125 C 306.675781 69.570312 306.433594 70.316406 305.933594 71.046875 C 305.835938 71.167969 305.722656 71.324219 305.578125 71.433594 C 299.019531 69.21875 291.484375 63.082031 284.949219 58.675781 C 280.257812 55.496094 276.988281 51.40625 272.515625 48.054688 Z M 193.882812 81.640625 C 201.207031 70.984375 211.570312 69.792969 221.945312 62.742188 C 233.722656 54.691406 247.707031 46.460938 262.542969 48.96875 C 262.859375 49.042969 263.089844 48.957031 263.359375 48.945312 C 266.273438 53.132812 272.855469 57.664062 276.820312 60.671875 C 283.683594 65.882812 297.738281 73.761719 303.433594 76.914062 C 300.335938 103.691406 310.734375 134.289062 287.4375 154.84375 C 287.390625 154.90625 287.375 154.941406 287.328125 154.964844 C 277.671875 155.332031 269.601562 147.746094 262.238281 142.59375 C 250.875 134.605469 240.097656 126.035156 229.382812 117.316406 C 216.542969 106.867188 204.632812 94.316406 193.882812 81.640625 Z M 174.132812 112.359375 C 177.445312 109.316406 178.433594 104.261719 181.226562 100.585938 C 183.542969 97.613281 185.519531 94.4375 187.738281 91.394531 C 187.992188 91.050781 190.054688 88.226562 190.1875 87.128906 C 203.855469 103.191406 219.300781 118.71875 236.210938 131.246094 C 248.511719 140.367188 265.566406 158.765625 282.621094 161.164062 C 281.21875 164.695312 275.074219 168.726562 273.476562 171.332031 C 271.699219 174.253906 260.519531 173.242188 259.738281 173.132812 C 243.574219 170.964844 233.625 164.816406 223.554688 151.921875 C 216.703125 143.15625 210.886719 132.683594 202.0625 125.644531 C 195.503906 120.398438 179.007812 118.996094 174.132812 112.359375 Z M 180.082031 134.15625 C 177.398438 133.535156 161.453125 132.367188 164.328125 126.144531 C 165.792969 122.964844 167.863281 120.042969 169.925781 117.183594 C 178.203125 126.605469 195.355469 125.742188 203.804688 136.433594 C 213.300781 148.378906 221.789062 165.707031 236.027344 172.816406 C 246.460938 178.015625 256.65625 179.453125 267.773438 179.429688 C 265.796875 186.382812 260.703125 187.941406 253.59375 186.296875 C 246.28125 184.605469 238.855469 185.128906 231.417969 183.324219 C 223.042969 181.351562 213.703125 179.039062 209.351562 170.40625 C 206.511719 164.804688 204.257812 158.886719 201.402344 153.285156 C 196.308594 143.300781 191.1875 136.738281 180.082031 134.15625 Z M 159.195312 146.371094 C 156.746094 142.828125 157.113281 138.113281 159.574219 134.765625 C 159.769531 135.019531 159.929688 135.277344 160.160156 135.558594 C 163.757812 139.648438 173.753906 139.296875 178.628906 140.414062 C 193.113281 143.777344 196.269531 158.65625 202.097656 170.234375 C 209.730469 185.421875 229.136719 193.46875 246.085938 192.261719 C 249.289062 192.042969 253.167969 193.347656 256.960938 194.113281 C 250.300781 199.546875 237.28125 199.203125 229.113281 198.484375 C 215.679688 197.242188 203.9375 191.996094 197.476562 179.210938 C 193.039062 170.332031 188.394531 159.65625 180.042969 153.613281 C 176.558594 151.082031 173.507812 149.683594 169.363281 148.71875 C 165.976562 147.941406 162.597656 147.160156 159.195312 146.371094 Z M 151.308594 158.023438 C 142.164062 155.171875 145.664062 150.386719 149.054688 146.578125 C 150.027344 149.304688 152.636719 151.519531 157.722656 152.703125 C 165.9375 154.601562 173.058594 155.222656 179.03125 161.738281 C 182.996094 166.058594 185.785156 170.113281 188.359375 175.300781 C 192.320312 183.253906 196.308594 190.414062 203.378906 196 C 207.78125 199.484375 211.984375 202.066406 217.558594 203.210938 C 221.238281 203.953125 225.566406 205.097656 229.394531 204.890625 C 232.320312 204.757812 239.011719 202.941406 241.730469 204.707031 C 244.0625 206.195312 246.378906 206.800781 248.65625 206.777344 C 245.339844 211.113281 239.867188 216.335938 235.878906 214.558594 C 232.453125 213 228.332031 211.464844 224.566406 211.464844 C 208.207031 211.5625 193.222656 202.746094 185.324219 188.414062 C 179.898438 178.578125 176.835938 169.957031 166.632812 163.964844 C 161.84375 161.164062 156.539062 159.679688 151.308594 158.023438 Z M 136.386719 169.019531 C 136.921875 168.445312 137.324219 167.984375 137.53125 167.738281 C 138.277344 166.742188 138.628906 165.351562 139.070312 164.246094 C 139.652344 162.882812 140.347656 161.796875 141.105469 160.726562 C 141.582031 161.054688 142.054688 161.347656 142.628906 161.589844 C 152.273438 166.023438 163.304688 167.070312 170.777344 175.484375 C 176.863281 182.316406 178.445312 191.921875 184.371094 198.972656 C 189.699219 205.269531 197.585938 213.171875 205.988281 214.9375 C 214.253906 216.664062 225.199219 216.933594 232.808594 220.195312 C 234.246094 220.816406 235.625 221.171875 236.941406 221.339844 C 234.90625 225.226562 232.296875 228.390625 228.003906 226.636719 C 224.859375 225.324219 223.203125 225.699219 219.910156 226.296875 C 201.609375 229.351562 191.941406 221.367188 181.675781 207.726562 C 175.726562 199.863281 170.65625 189.742188 162.941406 183.519531 C 155.394531 177.421875 144.847656 175.886719 137.703125 169.6875 C 137.300781 169.335938 136.851562 169.128906 136.386719 169.019531 Z M 125.792969 181.78125 C 125.328125 180.9375 129.035156 176.8125 132.449219 173.195312 C 132.609375 173.609375 132.886719 174 133.316406 174.386719 C 138.042969 178.492188 143.421875 179.039062 148.738281 182.097656 C 157.734375 187.257812 161.183594 192.019531 167.414062 199.777344 C 175.09375 209.394531 181.152344 220.878906 191.734375 227.648438 C 203.207031 235.003906 214.824219 232.191406 227.078125 234.003906 C 223.664062 238.425781 219.167969 243.101562 213.800781 241.847656 C 209.097656 240.761719 203.925781 242.941406 199.402344 241.894531 C 185.296875 238.632812 178.652344 228.84375 169.777344 218.6875 C 162.878906 210.785156 155.601562 203.089844 148.1875 195.648438 C 144.382812 191.800781 127.644531 187.734375 126.328125 182.925781 C 126.21875 182.460938 126.011719 182.082031 125.792969 181.78125 Z M 122.316406 211.757812 C 116.574219 208.191406 111.164062 204.34375 115.992188 197.28125 C 118.039062 194.34375 120.171875 191.433594 122.246094 188.5 C 127.71875 194.796875 141.347656 197 146.589844 203.160156 C 151.164062 208.46875 156.429688 213.132812 161.011719 218.371094 C 165.414062 223.386719 168.925781 229.449219 173.839844 234.066406 C 182.871094 242.601562 192.050781 248.582031 204.683594 248.070312 C 207.242188 247.960938 210.402344 248.761719 213.558594 249.203125 C 210.414062 255.324219 205.488281 264.703125 201.148438 261.242188 C 198.027344 258.761719 194.574219 257.492188 190.710938 256.847656 C 175.007812 254.351562 161.234375 247.3125 149.40625 236.550781 C 140.082031 228.074219 133.082031 218.503906 122.316406 211.757812 Z M 115.0625 232.433594 C 109.03125 228.074219 94.742188 224.617188 102.324219 215.191406 C 103.871094 213.316406 105.335938 211.269531 106.738281 209.175781 C 107.25 209.957031 107.871094 210.757812 108.773438 211.441406 C 115.90625 217.128906 124.550781 219.722656 130.9375 226.664062 C 137.460938 233.773438 143.738281 240.726562 151.625 246.4375 C 159.453125 252.097656 167.5 257.894531 176.960938 260.488281 C 185.117188 262.777344 192.246094 264.203125 199.527344 268.234375 C 196.890625 270.742188 194.234375 273.164062 192.199219 276.402344 C 191.515625 277.414062 189.285156 279.644531 189.820312 280.980469 C 189.773438 281.007812 189.761719 281.042969 189.710938 281.105469 C 186.335938 278.121094 186.589844 278.253906 182.226562 276.183594 C 171.875 271.179688 159.804688 273.1875 149.175781 269.960938 C 136.933594 266.25 129.253906 254.277344 123.316406 243.84375 C 121 239.753906 118.941406 235.320312 115.0625 232.433594 Z M 101.300781 254.730469 C 93.265625 251.257812 75.832031 240.945312 87.585938 230.144531 C 90.15625 227.769531 92.191406 225.3125 94.121094 222.71875 C 94.265625 223.667969 94.484375 224.628906 94.839844 225.664062 C 96.277344 230.21875 101.554688 232.09375 105.335938 234.027344 C 113.84375 238.460938 115.210938 243.976562 119.941406 251.417969 C 126.316406 261.402344 135.460938 273.566406 147.726562 276.222656 C 160.5625 278.972656 175.082031 277.609375 185.824219 286.328125 C 183.25 290.273438 180.933594 294.402344 178.019531 298.113281 C 172.875 304.617188 164.097656 297.859375 157.40625 296.3125 C 142.921875 292.964844 128.402344 296.996094 119.902344 280.957031 C 114.601562 270.960938 112.808594 259.660156 101.300781 254.730469 Z M 79.113281 267.296875 C 71.175781 263.214844 67.089844 258.199219 72.34375 249.640625 C 73.539062 247.679688 75.113281 245.621094 76.867188 243.757812 C 77.308594 245.5 78.160156 247.203125 79.648438 248.691406 C 86.464844 255.582031 97.410156 257.238281 103.898438 264.09375 C 110.503906 271.046875 112.480469 281.617188 118.183594 289.503906 C 130.511719 306.578125 152.371094 298.40625 169.058594 307.003906 C 169.839844 307.40625 170.609375 307.722656 171.375 307.941406 C 169.328125 311.53125 167.167969 315.136719 164.757812 317.621094 C 158.683594 323.878906 151.34375 316.902344 144.324219 315.855469 C 127.558594 313.445312 106.933594 313.433594 101.214844 293.78125 C 97.800781 281.957031 90.035156 272.859375 79.113281 267.296875 Z M 61.691406 290.96875 C 57.996094 288.09375 48.035156 282.601562 53.035156 275.441406 C 55.144531 272.375 58.226562 269.207031 60.519531 266.285156 C 61.347656 265.226562 62.226562 264.152344 63.066406 263.058594 C 67.382812 268.320312 72.492188 270.523438 78.210938 274.054688 C 90.046875 281.371094 92.621094 291.160156 97.984375 302.667969 C 107.796875 323.636719 136.082031 318.316406 154.1875 326.023438 C 155.492188 326.546875 156.699219 326.863281 157.867188 327.058594 C 154.269531 331.320312 150.332031 335.472656 147.042969 339.84375 C 146.1875 341.035156 145.347656 341.792969 144.507812 342.253906 C 144.042969 342.339844 143.605469 342.484375 143.226562 342.730469 C 140.140625 343.375 136.898438 340.683594 131.59375 339.855469 C 116.757812 337.519531 104.871094 337.628906 92.984375 326.742188 C 86.632812 320.898438 86.9375 310.230469 80.539062 303.984375 C 74.785156 298.40625 67.96875 295.835938 61.691406 290.96875 Z M 41.878906 308.332031 C 40.953125 301.085938 43.453125 292.539062 47.476562 286.277344 C 48.085938 287.300781 48.78125 288.277344 49.71875 289.261719 C 57.289062 297.285156 69.199219 300.476562 76.113281 308.671875 C 81.902344 315.515625 80 318.960938 83.5625 325.132812 C 85.632812 328.8125 88.183594 330.980469 91.011719 334.121094 C 95.714844 339.320312 105.628906 342.9375 112.308594 344.375 C 116.394531 345.273438 120.390625 345.433594 124.550781 345.554688 C 130.179688 345.761719 134.9375 347.746094 140.140625 349.023438 C 139.03125 351.144531 137.605469 353.480469 137.105469 354.210938 C 134.570312 357.695312 132.484375 358.460938 128.851562 360.484375 C 125.144531 362.589844 122.136719 363.867188 117.855469 364.71875 C 113.089844 365.671875 112.066406 358.351562 112.015625 355.40625 C 111.941406 351.289062 105.507812 351.519531 105.605469 355.683594 C 105.652344 358.960938 106.101562 363.160156 107.796875 366.484375 C 98.203125 365.925781 87.425781 360.007812 80.367188 354.820312 C 77.464844 352.640625 66.910156 348.476562 71.003906 344.445312 C 73.515625 341.988281 76.222656 339.78125 78.867188 337.433594 C 81.964844 334.667969 77.257812 330.308594 74.164062 333.035156 C 70.515625 336.265625 66.871094 338.980469 64.46875 343.007812 C 59.507812 338.773438 54.316406 334.9375 50.902344 329.203125 C 48.839844 325.742188 46.976562 322.417969 45.523438 318.679688 C 43.816406 314.359375 46.867188 312.898438 49.863281 311.253906 C 53.484375 309.230469 50.058594 303.777344 46.476562 305.773438 C 45.160156 306.492188 43.476562 307.308594 41.878906 308.332031 Z M 45.878906 277.851562 C 36.941406 287.253906 32.234375 304.347656 37.574219 316.429688 C 38.210938 319.726562 40.453125 323.027344 41.515625 325.878906 C 45.792969 337.285156 55.644531 343.121094 63.859375 351.035156 C 64.175781 351.363281 64.507812 351.558594 64.882812 351.679688 C 66.921875 353.796875 69.980469 355.464844 71.613281 356.539062 C 83.183594 364.050781 97.910156 375.058594 112.722656 372.757812 C 113.601562 372.636719 114.257812 372.171875 114.746094 371.625 C 119.136719 372.015625 125.171875 370.1875 128.046875 368.433594 C 134.121094 364.707031 138.789062 363.589844 142.738281 357.28125 C 144.410156 354.664062 146.273438 351.863281 147.296875 348.878906 C 149.640625 347.476562 151.113281 344.59375 153.296875 342.167969 C 158.636719 336.226562 164.355469 329.957031 168.707031 323.234375 C 173.15625 318.914062 176.449219 311.972656 179.652344 306.40625 C 186.042969 301.804688 190.101562 290.320312 194.6875 285.144531 C 195.1875 284.539062 195.367188 283.917969 195.441406 283.269531 C 195.746094 282.796875 196.039062 282.273438 196.40625 281.699219 C 199.953125 276.183594 205.144531 272.46875 209.179688 267.429688 C 209.402344 267.148438 209.484375 266.882812 209.621094 266.613281 C 214.726562 261.390625 219.347656 251.601562 221.152344 248.582031 C 221.445312 248.457031 221.714844 248.386719 221.96875 248.214844 C 226.566406 245.351562 231.246094 239.105469 234.476562 234.808594 C 234.671875 234.589844 234.734375 234.347656 234.820312 234.113281 C 239.597656 231.738281 242.988281 223.765625 244.695312 219.90625 C 244.742188 219.84375 244.71875 219.792969 244.71875 219.769531 C 249.777344 217.128906 253.839844 211.648438 256.75 206.207031 C 257.226562 205.28125 257.238281 204.441406 256.996094 203.734375 C 260.46875 201.273438 263.421875 197.597656 265.421875 193.871094 C 265.785156 193.699219 266.175781 193.613281 266.515625 193.394531 C 271.832031 190.121094 273.539062 184.652344 274.515625 179.050781 C 278.625 177.761719 282.132812 171.503906 284.378906 168.761719 C 286.667969 166.023438 288.753906 164.316406 289.21875 161.226562 C 290.328125 161.042969 291.058594 160.410156 291.507812 159.59375 C 291.714844 159.496094 291.910156 159.433594 292.09375 159.253906 C 302.847656 149.804688 308.296875 137.382812 309.078125 122.980469 C 309.550781 113.929688 310.980469 104.980469 310.503906 95.933594 C 310.1875 89.589844 309.027344 82.832031 309.90625 76.511719 C 309.929688 76.441406 309.894531 76.402344 309.90625 76.367188 C 310.015625 76.207031 310.199219 76.097656 310.234375 75.929688 C 310.453125 75.429688 311.492188 74.453125 311.84375 73.699219 C 312.1875 73.042969 312.757812 71.824219 312.976562 71.507812 C 313.148438 71.289062 313.34375 71.070312 313.539062 70.863281 C 314.246094 71.605469 315.160156 72.226562 316.441406 72.445312 C 317.769531 72.6875 318.78125 72.152344 319.453125 71.3125 C 320.648438 71.226562 321.769531 70.496094 322.097656 68.925781 C 324.058594 58.710938 341.980469 49.335938 337.835938 37.304688 C 334.851562 28.660156 322.160156 19.964844 314.953125 14.8125 C 305.957031 8.371094 297.59375 -0.0546875 285.632812 2.964844 C 276.234375 5.328125 271.6875 22.351562 265.945312 28.609375 C 265.554688 29.035156 265.335938 29.5 265.226562 29.984375 C 264.503906 31.167969 264.371094 32.714844 265.589844 33.957031 C 266.152344 34.527344 266.738281 35.027344 267.273438 35.550781 C 266.285156 37.269531 264.273438 39.910156 263.105469 42.578125 C 247.914062 40.347656 233.785156 46.863281 221.445312 55.289062 C 208.4375 64.191406 195.976562 65.808594 187.359375 79.910156 C 187.054688 80.421875 186.90625 80.871094 186.871094 81.335938 C 184.46875 83.015625 183.371094 86.316406 181.582031 88.980469 C 178.957031 92.839844 175.875 96.457031 173.679688 100.5625 C 172.765625 102.265625 171.511719 107.210938 169.484375 108.027344 C 168.511719 108.425781 167.914062 109.121094 167.609375 109.9375 C 167.304688 110.121094 167.035156 110.351562 166.769531 110.730469 C 163.109375 115.710938 157.757812 121.847656 157.417969 127.921875 C 157.246094 128.03125 157.050781 128.09375 156.894531 128.277344 C 154.199219 131.027344 151.503906 134.582031 149.945312 138.136719 C 148.957031 137.796875 147.847656 137.980469 147.03125 139.148438 C 144.410156 142.679688 137.863281 149.378906 137.738281 154.992188 C 136.253906 157.144531 134.828125 159.3125 133.300781 161.296875 C 132.496094 162.394531 132.582031 163.917969 131.65625 164.914062 C 130.414062 166.277344 128.742188 167.324219 127.546875 168.691406 C 125.109375 171.613281 119.597656 177.007812 119.320312 181.707031 C 119.222656 181.792969 119.097656 181.875 118.988281 182 C 116.503906 185.773438 110.992188 191.472656 107.796875 197.183594 C 107.128906 197.390625 106.480469 197.792969 105.980469 198.523438 C 102.886719 203.332031 99.179688 207.242188 96.714844 211.367188 C 95.789062 211.113281 94.753906 211.320312 93.925781 212.367188 C 90.609375 216.664062 81.867188 225.40625 78.171875 234.015625 C 73.746094 237.28125 64.785156 246.15625 62.03125 253.914062 C 56.484375 260.730469 47.21875 269.21875 45.878906 277.851562 "/>
</g>
</svg>
